<svg xmlns="http://www.w3.org/2000/svg" style="display:none" aria-hidden="true">
  <symbol id="icon-discord" viewBox="0 0 24 24"><path fill="currentColor" d="M20.32 4.37a19.8 19.8 0 0 0-4.93-1.52.07.07 0 0 0-.07.04c-.21.38-.45.88-.62 1.27a18.3 18.3 0 0 0-5.5 0 12.6 12.6 0 0 0-.63-1.27.08.08 0 0 0-.07-.04 19.7 19.7 0 0 0-4.93 1.52.07.07 0 0 0-.03.03C1.45 8.55.98 12.58 1.21 16.57a.08.08 0 0 0 .03.06 19.9 19.9 0 0 0 5.99 3.03.08.08 0 0 0 .08-.03c.46-.63.87-1.3 1.22-2a.08.08 0 0 0-.04-.11 13.1 13.1 0 0 1-1.87-.9.08.08 0 0 1-.01-.13c.13-.1.26-.2.38-.3a.08.08 0 0 1 .08-.01c3.93 1.8 8.18 1.8 12.07 0a.08.08 0 0 1 .08.01c.12.1.25.2.38.3a.08.08 0 0 1-.01.12 12.3 12.3 0 0 1-1.88.91.08.08 0 0 0-.03.11c.35.7.76 1.36 1.22 2a.08.08 0 0 0 .08.03 19.8 19.8 0 0 0 6-3.03.08.08 0 0 0 .03-.06c.28-4.67-.76-8.6-3.16-12.17a.06.06 0 0 0-.03-.03zM8.02 14.33c-1.18 0-2.16-1.08-2.16-2.42 0-1.33.96-2.42 2.16-2.42 1.21 0 2.18 1.1 2.16 2.42 0 1.34-.96 2.42-2.16 2.42zm7.97 0c-1.18 0-2.16-1.08-2.16-2.42 0-1.33.96-2.42 2.16-2.42 1.21 0 2.18 1.1 2.16 2.42 0 1.34-.95 2.42-2.16 2.42z"/></symbol>
  <symbol id="icon-gmail" viewBox="0 0 24 24"><path fill="currentColor" d="M4 4h16a2 2 0 0 1 2 2v12a2 2 0 0 1-2 2H4a2 2 0 0 1-2-2V6a2 2 0 0 1 2-2zm0 2v.01L12 13l8-6.99V6H4zm16 12V9.25l-8 6.99-8-7V18h16z"/></symbol>
  <symbol id="icon-slack" viewBox="0 0 24 24"><path fill="currentColor" d="M5.04 15.12a2.16 2.16 0 0 1-2.16 2.16 2.16 2.16 0 0 1-2.16-2.16 2.16 2.16 0 0 1 2.16-2.16h2.16v2.16zm1.08 0a2.16 2.16 0 0 1 2.16-2.16 2.16 2.16 0 0 1 2.16 2.16v5.4a2.16 2.16 0 0 1-2.16 2.16 2.16 2.16 0 0 1-2.16-2.16v-5.4zM8.28 5.04a2.16 2.16 0 0 1-2.16-2.16A2.16 2.16 0 0 1 8.28.72h5.4a2.16 2.16 0 0 1 2.16 2.16 2.16 2.16 0 0 1-2.16 2.16H8.28zm0 1.08a2.16 2.16 0 0 1 2.16 2.16 2.16 2.16 0 0 1-2.16 2.16H2.88a2.16 2.16 0 0 1-2.16-2.16A2.16 2.16 0 0 1 2.88 6.12h5.4zm11.68 2.16a2.16 2.16 0 0 1 2.16-2.16 2.16 2.16 0 0 1 2.16 2.16 2.16 2.16 0 0 1-2.16 2.16h-2.16V8.28zm-1.08 0a2.16 2.16 0 0 1-2.16 2.16 2.16 2.16 0 0 1-2.16-2.16V2.88a2.16 2.16 0 0 1 2.16-2.16 2.16 2.16 0 0 1 2.16 2.16v5.4zm-2.16 11.68a2.16 2.16 0 0 1 2.16 2.16 2.16 2.16 0 0 1-2.16 2.16h-5.4a2.16 2.16 0 0 1-2.16-2.16 2.16 2.16 0 0 1 2.16-2.16h5.4zm0-1.08a2.16 2.16 0 0 1-2.16-2.16 2.16 2.16 0 0 1 2.16-2.16h5.4a2.16 2.16 0 0 1 2.16 2.16 2.16 2.16 0 0 1-2.16 2.16h-5.4z"/></symbol>
  <symbol id="icon-telegram" viewBox="0 0 24 24"><path fill="currentColor" d="M9.04 15.31 8.9 19.2c.46 0 .66-.2.9-.44l2.16-2.07 4.48 3.28c.82.45 1.4.21 1.6-.74l2.94-13.78h.01c.26-1.2-.43-1.67-1.2-1.38L2.6 9.44c-1.17.46-1.15 1.12-.2 1.42l4.66 1.46L18.6 6.1c.56-.37 1.07-.16.65.21"/></symbol>
  <symbol id="icon-whatsapp" viewBox="0 0 24 24"><path fill="currentColor" d="M12.04 2C6.58 2 2.13 6.45 2.13 11.91c0 1.75.46 3.45 1.33 4.95L2 22l5.25-1.38a9.9 9.9 0 0 0 4.79 1.22h.01c5.46 0 9.91-4.45 9.91-9.91 0-2.65-1.03-5.14-2.9-7.01A9.8 9.8 0 0 0 12.04 2zm0 18.16h-.01a8.2 8.2 0 0 1-4.16-1.14l-.3-.18-3.12.82.83-3.04-.2-.31a8.18 8.18 0 0 1-1.26-4.38c0-4.54 3.7-8.24 8.24-8.24 2.2 0 4.27.86 5.82 2.41a8.17 8.17 0 0 1 2.41 5.83c0 4.54-3.7 8.24-8.25 8.24zm4.52-6.16c-.25-.12-1.47-.72-1.69-.8-.23-.08-.39-.12-.56.12-.17.25-.64.8-.78.96-.14.17-.29.19-.54.06-.25-.12-1.05-.39-1.99-1.23-.74-.66-1.23-1.47-1.38-1.72-.14-.25-.02-.39.11-.51.11-.11.25-.29.37-.43.12-.14.17-.25.25-.41.08-.17.04-.31-.02-.43-.06-.12-.56-1.35-.77-1.84-.2-.48-.41-.42-.56-.43h-.48c-.17 0-.43.06-.66.31-.23.25-.87.85-.87 2.07 0 1.22.89 2.4 1.01 2.56.12.17 1.75 2.67 4.23 3.74.59.26 1.05.41 1.41.52.59.19 1.13.16 1.56.1.48-.07 1.47-.6 1.67-1.18.21-.58.21-1.07.14-1.18-.06-.1-.23-.16-.48-.28z"/></symbol>
  <symbol id="icon-signal" viewBox="0 0 24 24"><path fill="currentColor" d="M12 2C6.48 2 2 6.48 2 12s4.48 10 10 10 10-4.48 10-10S17.52 2 12 2zm0 18c-4.41 0-8-3.59-8-8s3.59-8 8-8 8 3.59 8 8-3.59 8-8 8zm-1-13h2v6h-2zm0 8h2v2h-2z"/><path fill="currentColor" d="M12 4c-1.5 0-2.9.45-4.07 1.23l1.14 1.14A6 6 0 0 1 12 6c3.31 0 6 2.69 6 6 0 1.09-.29 2.11-.8 3l1.13 1.13A7.96 7.96 0 0 0 20 12c0-4.41-3.59-8-8-8z"/></symbol>
  <symbol id="icon-cli" viewBox="0 0 24 24"><path fill="currentColor" d="M4 5h16a1 1 0 0 1 1 1v12a1 1 0 0 1-1 1H4a1 1 0 0 1-1-1V6a1 1 0 0 1 1-1zm1 2v10h14V7H5zm2.3 2.3 3.4 3.4-3.4 3.4 1.4 1.4 4.8-4.8-4.8-4.8-1.4 1.4zm4.7 6.7v2h6v-2h-6z"/></symbol>
  <symbol id="icon-control" viewBox="0 0 24 24"><path fill="currentColor" d="M4 4h7v7H4V4zm9 0h7v7h-7V4zM4 13h7v7H4v-7zm13 0h-2v3h-3v2h3v3h2v-3h3v-2h-3v-3z"/></symbol>
  <symbol id="icon-remember" viewBox="0 0 24 24"><path fill="currentColor" d="M12 3C7.58 3 4 6.58 4 11v5.1l-1.7 1.7 1.4 1.4 2.3-2.3V11c0-3.31 2.69-6 6-6s6 2.69 6 6v4.9l2.3 2.3 1.4-1.4L20 16.1V11c0-4.42-3.58-8-8-8zm-1 14h2v2h-2v-2z"/></symbol>
  <symbol id="icon-watch" viewBox="0 0 24 24"><path fill="currentColor" d="M12 4.5C7 4.5 2.73 7.61 1 12c1.73 4.39 6 7.5 11 7.5s9.27-3.11 11-7.5c-1.73-4.39-6-7.5-11-7.5zM12 17c-2.76 0-5-2.24-5-5s2.24-5 5-5 5 2.24 5 5-2.24 5-5 5zm0-8c-1.66 0-3 1.34-3 3s1.34 3 3 3 3-1.34 3-3-1.34-3-3-3z"/></symbol>
  <symbol id="icon-delegate" viewBox="0 0 24 24"><path fill="currentColor" d="M16 11c1.66 0 2.99-1.34 2.99-3S17.66 5 16 5c-1.66 0-3 1.34-3 3s1.34 3 3 3zm-8 0c1.66 0 2.99-1.34 2.99-3S9.66 5 8 5C6.34 5 5 6.34 5 8s1.34 3 3 3zm0 2c-2.33 0-7 1.17-7 3.5V19h14v-2.5c0-2.33-4.67-3.5-7-3.5zm8 0c-.29 0-.62.02-.97.05 1.16.84 1.97 1.97 1.97 3.45V19h6v-2.5c0-2.33-4.67-3.5-7-3.5z"/></symbol>
  <symbol id="icon-persona" viewBox="0 0 24 24"><path fill="currentColor" d="M12 2a3 3 0 1 1 0 6 3 3 0 0 1 0-6zm-7 9c-1.1 0-2 .9-2 2v6h2v-1.5c0-1.38 1.12-2.5 2.5-2.5h9c1.38 0 2.5 1.12 2.5 2.5V19h2v-6c0-1.1-.9-2-2-2H5z"/></symbol>
  <symbol id="icon-open" viewBox="0 0 24 24"><path fill="currentColor" d="M12 2C6.48 2 2 6.48 2 12s4.48 10 10 10 10-4.48 10-10S17.52 2 12 2zm-1 14.5v-5l4.5 2.5-4.5 2.5z"/></symbol>
</svg>